<?xml version="1.0" encoding="utf-8"?>
<svg viewBox="0 0 659 208" xmlns="http://www.w3.org/2000/svg">
  <path d="M 379.077 33.504 L 379.077 18.985 C 379.093 16.775 380.759 15.297 382.774 15.297 L 447.883 15.297 C 449.98 15.297 451.643 16.817 451.643 18.972 L 451.643 31.446 C 451.618 33.505 449.857 36.244 446.739 40.58 L 412.985 88.733 C 425.511 88.44 438.764 90.311 450.146 96.713 C 452.71 98.161 453.407 100.272 453.602 102.371 L 453.602 117.898 C 453.602 120.044 451.258 122.523 448.819 121.232 C 428.757 110.708 402.16 109.564 380.002 121.358 C 377.732 122.571 375.37 120.142 375.37 117.996 L 375.37 103.225 C 375.37 100.871 375.408 96.834 377.788 93.242 L 416.859 37.176 L 382.846 37.176 C 380.768 37.175 379.101 35.693 379.077 33.504 Z M 141.561 124.289 L 121.749 124.289 C 119.864 124.174 118.345 122.756 118.205 120.945 L 118.223 19.233 C 118.223 17.205 119.92 15.57 122.041 15.57 L 140.489 15.563 C 142.422 15.669 143.967 17.129 144.094 18.985 L 144.094 32.269 L 144.457 32.269 C 149.254 19.425 158.328 13.422 170.521 13.422 C 182.92 13.422 190.665 19.425 196.228 32.269 C 201.04 19.425 211.94 13.422 223.602 13.422 C 231.928 13.422 240.98 16.853 246.536 24.559 C 252.831 33.097 251.53 45.531 251.53 56.423 L 251.522 120.622 C 251.522 122.662 249.795 124.288 247.693 124.288 L 227.912 124.288 C 225.915 124.173 224.355 122.592 224.355 120.643 L 224.347 66.707 C 224.347 62.431 224.709 51.742 223.783 47.657 C 222.293 40.812 217.858 38.886 212.126 38.886 C 207.339 38.886 202.335 42.098 200.294 47.236 C 198.27 52.377 198.446 60.919 198.446 66.707 L 198.446 120.62 C 198.446 122.66 196.734 124.286 194.624 124.286 L 174.839 124.286 C 172.847 124.171 171.277 122.59 171.277 120.641 L 171.252 66.705 C 171.252 55.354 173.111 38.671 159.063 38.671 C 144.811 38.671 145.37 54.952 145.37 66.705 L 145.362 120.618 C 145.36 122.663 143.682 124.289 141.561 124.289 Z M 507.715 13.423 C 537.091 13.423 553.027 38.676 553.027 70.777 C 553.027 101.792 535.425 126.436 507.715 126.436 C 478.856 126.436 463.125 101.137 463.125 69.694 C 463.125 38.039 479.034 13.423 507.715 13.423 Z M 507.903 34.173 C 493.274 34.173 492.346 54.1 492.346 66.474 C 492.346 78.893 492.16 105.42 507.714 105.42 C 523.03 105.42 523.758 84.027 523.758 71.006 C 523.758 62.434 523.398 52.166 520.801 44.027 C 518.589 36.953 514.149 34.173 507.903 34.173 Z M 591.141 124.289 L 571.388 124.289 C 569.392 124.174 567.833 122.593 567.833 120.644 L 567.791 18.895 C 567.965 17.029 569.605 15.569 571.605 15.569 L 590.001 15.562 C 591.741 15.654 593.164 16.837 593.523 18.419 L 593.523 33.965 L 593.896 33.965 C 599.441 20.067 607.176 13.421 620.863 13.421 C 629.752 13.421 638.461 16.637 644.008 25.422 C 649.156 33.528 649.156 47.237 649.156 57.076 L 649.156 121.076 C 648.927 122.898 647.302 124.288 645.398 124.288 L 625.506 124.288 C 623.699 124.181 622.199 122.812 621.971 121.076 L 621.971 65.855 C 621.971 54.745 623.285 38.456 609.575 38.456 C 604.759 38.456 600.368 41.676 598.136 46.602 C 595.367 52.812 595.004 58.999 595.004 65.856 L 595.004 120.623 C 594.954 122.663 593.25 124.289 591.141 124.289 Z M 102.736 105.627 C 99.132 100.608 95.277 96.557 95.277 87.271 L 95.277 56.398 C 95.277 43.336 96.212 31.331 86.561 22.323 C 78.954 15.02 66.357 12.447 56.71 12.447 C 37.855 12.447 16.829 19.484 12.412 42.781 C 11.942 45.273 13.746 46.566 15.372 46.932 L 34.574 49.013 C 36.359 48.921 37.67 47.142 38.014 45.361 C 39.666 37.326 46.389 33.457 53.945 33.457 C 58.007 33.457 62.641 34.967 65.062 38.612 C 67.841 42.677 67.468 48.267 67.468 52.986 L 67.468 55.537 C 55.97 56.83 40.955 57.684 30.222 62.408 C 17.803 67.782 9.102 78.701 9.102 94.802 C 9.102 115.406 22.066 125.701 38.732 125.701 C 52.847 125.701 60.524 122.371 71.41 111.29 C 75.01 116.498 76.185 119.011 82.761 124.504 C 84.24 125.287 86.128 125.225 87.445 124.037 L 87.489 124.085 C 91.448 120.556 98.649 114.306 102.674 110.919 C 104.281 109.585 103.997 107.423 102.736 105.627 Z M 63.756 96.726 C 60.6 102.275 55.608 105.712 50.051 105.712 C 42.447 105.712 38.001 99.917 38.001 91.36 C 38.001 74.494 53.145 71.434 67.471 71.434 L 67.471 75.714 C 67.471 83.413 67.652 89.856 63.756 96.726 Z M 362.448 105.627 C 358.816 100.608 354.968 96.557 354.968 87.271 L 354.968 56.398 C 354.968 43.336 355.896 31.331 346.244 22.323 C 338.671 15.02 326.056 12.447 316.428 12.447 C 297.577 12.447 276.539 19.484 272.126 42.781 C 271.656 45.273 273.46 46.566 275.083 46.932 L 294.273 49.013 C 296.086 48.921 297.387 47.142 297.725 45.361 C 299.387 37.326 306.081 33.457 313.648 33.457 C 317.72 33.457 322.364 34.967 324.761 38.612 C 327.533 42.677 327.163 48.267 327.163 52.986 L 327.163 55.537 C 315.68 56.83 300.673 57.684 289.933 62.408 C 277.514 67.782 268.801 78.701 268.801 94.802 C 268.801 115.406 281.757 125.701 298.446 125.701 C 312.524 125.701 320.242 122.371 331.116 111.29 C 334.708 116.498 335.892 119.011 342.467 124.504 C 343.957 125.287 345.826 125.225 347.136 124.037 L 347.179 124.085 C 351.147 120.556 358.346 114.306 362.392 110.919 C 364.004 109.585 363.728 107.423 362.448 105.627 Z M 323.454 96.726 C 320.323 102.275 315.311 105.712 309.749 105.712 C 302.145 105.712 297.718 99.917 297.718 91.36 C 297.718 74.494 312.842 71.434 327.165 71.434 L 327.165 75.714 C 327.165 83.413 327.357 89.856 323.454 96.726 Z" fill="#fff"/>
  <g fill="#f9a51b" transform="matrix(1, 0, 0, 1, -180.945007, -316.241577)">
    <path d="M586.477 480.055c-37.793 26.976-90.436 41.545-136.88 41.545-65.057 0-123.044-23.549-167.721-63.893-4.132-3.732-1.464-8.109 3.674-5.156 48.602 28.107 106.849 44.551 167.965 44.551 41.215 0 84.992-8.207 126.593-25.905 9.096-3.877 12.866 4.215 6.369 8.858z"/>
    <path d="M602.626 461.848c-4.78-6.106-31.47-2.887-43.461-1.471-3.609.443-4.197-2.732-.907-5.027 21.288-14.881 56.185-10.549 60.22-5.637 4.081 5.053-1.078 40.066-21.022 56.779-3.075 2.588-5.962 1.184-4.608-2.203 4.476-11.228 14.534-36.357 9.778-42.441z"/>
  </g>
</svg>