<svg width="900" height="450" xmlns="http://www.w3.org/2000/svg">
 <g id="Layer_1">
  <title>Layer 1</title>
  <g stroke="null" id="svg_10">
   <path stroke="null" id="svg_1" d="m-3.71431,-6.2857l903.5091,0l0,459.71734l-903.5091,0l0,-459.71734z" fill="#231f20"/>
   <path stroke="null" id="svg_2" fill="#fff" d="m492.3917,173.79698l0,-15.11065c0.01676,-2.30006 1.76196,-3.83829 3.87274,-3.83829l68.204,0c2.19668,0 3.93873,1.58194 3.93873,3.82476l0,12.98232c-0.02619,2.1429 -1.8709,4.99352 -5.13712,9.50621l-35.35852,50.11524c13.12143,-0.30494 27.00442,1.6423 38.92747,8.30519c2.68588,1.50701 3.41601,3.70403 3.62028,5.88856l0,16.15973c0,2.23345 -2.45542,4.81347 -5.01036,3.46986c-21.01566,-10.95285 -48.87697,-12.14347 -72.08826,0.13113c-2.37791,1.26243 -4.85219,-1.26555 -4.85219,-3.499l0,-15.37292c0,-2.44993 0.03981,-6.65143 2.53294,-10.38981l40.92827,-58.35069l-35.62983,0c-2.17678,-0.00104 -3.92302,-1.54343 -3.94816,-3.82163zm-248.80649,94.48449l-20.75378,0c-1.9746,-0.11969 -3.56581,-1.59547 -3.71247,-3.48027l0.01886,-105.85676c0,-2.11064 1.77767,-3.81227 3.99949,-3.81227l19.32494,-0.00729c2.02489,0.11032 3.64333,1.62981 3.77637,3.56145l0,13.82532l0.38026,0c5.02503,-13.36739 14.53037,-19.61502 27.30297,-19.61502c12.9884,0 21.10156,6.24762 26.929,19.61502c5.04074,-13.36739 16.45888,-19.61502 28.67524,-19.61502c8.72178,0 18.20408,3.57081 24.02418,11.59083c6.59424,8.88592 5.23139,21.82661 5.23139,33.16246l-0.00838,66.81511c0,2.12313 -1.80909,3.81539 -4.01101,3.81539l-20.7213,0c-2.09193,-0.11969 -3.72608,-1.76511 -3.72608,-3.79353l-0.00838,-56.13389c0,-4.45025 0.37921,-15.57482 -0.59081,-19.82629c-1.56083,-7.12393 -6.20665,-9.12842 -12.21112,-9.12842c-5.01455,0 -10.25642,3.34289 -12.39444,8.69026c-2.12021,5.3505 -1.93585,14.24058 -1.93585,20.26444l0,56.10996c0,2.12313 -1.79338,3.81539 -4.00368,3.81539l-20.72549,0c-2.08669,-0.11969 -3.73132,-1.76511 -3.73132,-3.79353l-0.02619,-56.13389c0,-11.81355 1.94737,-29.17639 -12.76841,-29.17639c-14.92948,0 -14.34391,16.94445 -14.34391,29.17639l-0.00838,56.10996c-0.0021,2.12833 -1.75986,3.82059 -3.98168,3.82059zm383.55938,-115.38379c30.77241,0 47.46594,26.28206 47.46594,59.69118c0,32.27886 -18.43872,57.9271 -47.46594,57.9271c-30.23083,0 -46.70962,-26.32993 -46.70962,-59.05424c0,-32.94494 16.66525,-58.56404 46.70962,-58.56404zm0.19694,21.59556c-15.3244,0 -16.29651,20.73903 -16.29651,33.61727c0,12.92507 -0.19484,40.53305 16.09853,40.53305c16.04406,0 16.80666,-22.26476 16.80666,-35.81637c0,-8.92131 -0.37711,-19.60773 -3.09756,-28.07839c-2.31715,-7.36227 -6.96821,-10.25555 -13.51112,-10.25555zm87.19478,93.78823l-20.69197,0c-2.09088,-0.11969 -3.72399,-1.76511 -3.72399,-3.79353l-0.044,-105.89527c0.18227,-1.94204 1.90023,-3.46153 3.9953,-3.46153l19.27047,-0.00729c1.82271,0.09575 3.31336,1.32696 3.68942,2.97342l0,16.1795l0.39073,0c5.80859,-14.46434 13.91127,-21.38117 28.2489,-21.38117c9.31154,0 18.43453,3.34705 24.24521,12.49004c5.39271,8.43632 5.39271,22.70396 5.39271,32.9439l0,66.608c-0.23989,1.89625 -1.94213,3.34289 -3.93664,3.34289l-20.83758,0c-1.8929,-0.11136 -3.4642,-1.53615 -3.70304,-3.34289l0,-57.47126c0,-11.56273 1.37646,-28.51551 -12.98525,-28.51551c-5.04493,0 -9.64466,3.35122 -11.98276,8.47795c-2.90063,6.46306 -3.28088,12.90218 -3.28088,20.0386l0,56.99876c-0.05238,2.12313 -1.83738,3.81539 -4.04663,3.81539zm-511.62167,-19.42248c-3.77532,-5.22352 -7.81357,-9.4396 -7.81357,-19.10401l0,-32.13107c0,-13.59428 0.97945,-26.08848 -9.13032,-35.46356c-7.9686,-7.6006 -21.16441,-10.27845 -31.26999,-10.27845c-19.75129,0 -41.77677,7.32376 -46.40374,31.57011c-0.49234,2.59355 1.39741,3.93924 3.10071,4.32015l20.11478,2.1658c1.86985,-0.09575 3.24317,-1.94724 3.60352,-3.80082c1.73053,-8.36243 8.77311,-12.38909 16.68829,-12.38909c4.25509,0 9.10937,1.57153 11.64545,5.36507c2.9111,4.23065 2.52037,10.04844 2.52037,14.95974l0,2.65495c-12.04457,1.34569 -27.77331,2.23449 -39.01651,7.15099c-13.00935,5.59299 -22.12395,16.95694 -22.12395,33.71406c0,21.44361 13.58025,32.15813 31.03848,32.15813c14.78597,0 22.8279,-3.4657 34.23137,-14.99825c3.77113,5.42023 5.00198,8.03563 11.89058,13.75247c1.54931,0.81491 3.52705,0.75038 4.90666,-0.48603l0.04609,0.04996c4.14719,-3.67281 11.6905,-10.17749 15.90683,-13.70251c1.68339,-1.38836 1.38589,-3.63846 0.06495,-5.50765zm-40.83294,-9.26372c-3.30602,5.77512 -8.53532,9.35218 -14.35648,9.35218c-7.96546,0 -12.62281,-6.03115 -12.62281,-14.93684c0,-17.55329 15.86388,-20.73798 30.87088,-20.73798l0,4.45441c0,8.01273 0.1896,14.71829 -3.8916,21.86824zm312.89053,9.26372c-3.80465,-5.22352 -7.83557,-9.4396 -7.83557,-19.10401l0,-32.13107c0,-13.59428 0.97211,-26.08848 -9.1387,-35.46356c-7.93299,-7.6006 -21.14765,-10.27845 -31.23332,-10.27845c-19.7471,0 -41.78515,7.32376 -46.40793,31.57011c-0.49234,2.59355 1.39741,3.93924 3.09756,4.32015l20.10221,2.1658c1.89918,-0.09575 3.26203,-1.94724 3.61609,-3.80082c1.741,-8.36243 8.75321,-12.38909 16.67991,-12.38909c4.26557,0 9.13032,1.57153 11.64126,5.36507c2.90377,4.23065 2.51618,10.04844 2.51618,14.95974l0,2.65495c-12.02885,1.34569 -27.74922,2.23449 -38.99975,7.15099c-13.00935,5.59299 -22.13652,16.95694 -22.13652,33.71406c0,21.44361 13.57187,32.15813 31.0542,32.15813c14.74721,0 22.83209,-3.4657 34.22299,-14.99825c3.76275,5.42023 5.00303,8.03563 11.89058,13.75247c1.56083,0.81491 3.51867,0.75038 4.89094,-0.48603l0.04504,0.04996c4.15662,-3.67281 11.69783,-10.17749 15.93616,-13.70251c1.68863,-1.38836 1.39951,-3.63846 0.05866,-5.50765zm-40.84761,-9.26372c-3.27983,5.77512 -8.53008,9.35218 -14.35648,9.35218c-7.96546,0 -12.6029,-6.03115 -12.6029,-14.93684c0,-17.55329 15.84293,-20.73798 30.84678,-20.73798l0,4.45441c0,8.01273 0.20113,14.71829 -3.8874,21.86824z"/>
   <g stroke="null" id="svg_5" fill="#f9a51b">
    <path stroke="null" id="svg_3" d="m520.10426,309.41607c-39.58952,28.07527 -94.73494,43.23796 -143.38669,43.23796c-68.14953,0 -128.89298,-24.50862 -175.69373,-66.49664c-4.32842,-3.88408 -1.53359,-8.43944 3.84865,-5.36611c50.91233,29.25236 111.92814,46.36645 175.94933,46.36645c43.17418,0 89.03215,-8.54144 132.61069,-26.96063c9.52838,-4.03499 13.47759,4.38676 6.67175,9.21896z"/>
    <path stroke="null" id="svg_4" d="m537.02091,290.46714c-5.00722,-6.35482 -32.96595,-3.00465 -45.52695,-1.53094c-3.78056,0.46105 -4.39651,-2.84333 -0.95011,-5.23185c22.29994,-15.4874 58.85579,-10.97887 63.0826,-5.86671c4.27499,5.25891 -1.12924,41.69869 -22.0213,59.09274c-3.22117,2.69346 -6.24541,1.23225 -4.82704,-2.29277c4.68877,-11.68554 15.22488,-37.83855 10.2428,-44.17047z"/>
   </g>
   <path stroke="null" id="svg_6" fill="#fff" d="m798.91531,250.99565c2.33705,0 4.32527,0.81699 5.96467,2.45097c1.6373,1.61941 2.4638,3.58851 2.4638,5.89377c0,2.31983 -0.82441,4.29205 -2.4638,5.92187c-1.63416,1.63502 -3.61924,2.45409 -5.96467,2.45409c-2.33915,0 -4.32527,-0.81907 -5.95943,-2.45409c-1.62892,-1.62981 -2.446,-3.60412 -2.446,-5.92187c0,-2.30526 0.81708,-4.27436 2.4638,-5.89377c1.63939,-1.63398 3.62657,-2.45097 5.94162,-2.45097zm9.74837,8.32496c0,-2.66848 -0.9564,-4.94252 -2.85453,-6.82003c-1.90023,-1.87959 -4.21005,-2.81939 -6.90326,-2.81939c-2.68064,0 -4.96322,0.9398 -6.8666,2.81939c-1.89709,1.88688 -2.85244,4.1578 -2.85244,6.82003c0,2.68409 0.94278,4.9727 2.82835,6.85854c1.8908,1.90145 4.19433,2.85166 6.88755,2.85166c2.69426,0 5.00198,-0.9502 6.90431,-2.85166c1.90023,-1.88896 2.85663,-4.17653 2.85663,-6.85854zm-7.16933,-2.08879c0,0.79721 -0.36978,1.33945 -1.11248,1.63086c-0.41378,0.16028 -1.0182,0.23105 -1.82271,0.23105l-1.72529,0l0,-3.78521l1.62578,0c1.06639,0 1.83109,0.12073 2.31924,0.383c0.47453,0.26435 0.71547,0.77016 0.71547,1.54031zm-6.50101,-3.23881l0,10.58651l1.83947,0l0,-4.17237l1.50636,0c1.0182,0 1.72843,0.1176 2.12859,0.3372c0.68823,0.40381 1.02554,1.20311 1.02554,2.43119l0,0.83884l0.04085,0.33824l0.02305,0.11969c0.01676,0.03018 0.02305,0.07181 0.03143,0.1072l1.74938,0l-0.06809,-0.1353c-0.05238,-0.09159 -0.08171,-0.26851 -0.09847,-0.54743c-0.022,-0.28204 -0.022,-0.54223 -0.022,-0.78993l0,-0.76911c0,-0.53495 -0.20217,-1.08446 -0.58138,-1.64959c-0.39073,-0.55784 -0.99516,-0.90337 -1.83214,-1.03138c0.6589,-0.10408 1.17219,-0.27268 1.54512,-0.51205c0.70499,-0.45377 1.05801,-1.14899 1.05801,-2.09087c0,-1.328 -0.56148,-2.22096 -1.66872,-2.68097c-0.62119,-0.25082 -1.59644,-0.37779 -2.92681,-0.37779l-3.75018,-0.00208z"/>
  </g>
 </g>
</svg>